#!OML:ASF F:\twosubjects\two\Thursday\Session 1\justin.ASF
:FULLY-SPECIFIED
:DEGREES
891
root 10.7039 17.8146 -12.0115 1.05743 -49.4651 4.75212
lowerback -2.5952 2.48868 -3.41679
upperback -0.633741 3.40231 0.336824
thorax 0.583057 1.69829 2.35449
lowerneck -20.8614 5.50193 -3.80074
upperneck 26.5582 9.25217 -0.476729
head 12.0568 3.61813 1.93729
rclavicle 3.36816e-014 -7.95139e-016
rhumerus -27.7478 -12.3545 -81.4951
rradius 27.6202
rwrist -0.597503
rhand -15.2726 12.371
rfingers 7.12502
rthumb 10.9018 -17.326
lclavicle 3.36816e-014 -7.95139e-016
lhumerus -29.5807 9.96533 83.4575
lradius 27.1962
lwrist -15.5983
lhand -0.656442 40.7783
lfingers 7.12502
lthumb 24.9615 69.1679
rfemur -4.35128 -3.99609 6.58055
rtibia 19.5905
rfoot -14.8737 -15.8173
rtoes -15.887
lfemur -6.15856 9.94473 -25.9068
ltibia 16.3427
lfoot -13.457 -0.240966
ltoes -8.03598
892
root 10.7028 17.8136 -12.0119 1.09007 -49.4651 4.75062
lowerback -2.64741 2.49027 -3.42942
upperback -0.640646 3.40662 0.322563
thorax 0.605021 1.70006 2.34945
lowerneck -20.7742 5.48792 -3.71869
upperneck 26.5155 9.22255 -0.564618
head 12.0334 3.60406 1.88278
rclavicle 5.07771e-014 3.97569e-016
rhumerus -27.6767 -12.4371 -81.5094
rradius 27.6217
rwrist -0.576064
rhand -15.3034 12.2157
rfingers 7.12502
rthumb 10.8721 -17.4828
lclavicle 5.07771e-014 3.97569e-016
lhumerus -29.5024 9.71178 83.5106
lradius 27.161
lwrist -15.2766
lhand -0.623907 40.988
lfingers 7.12502
lthumb 24.9926 69.3733
rfemur -4.39596 -3.83748 6.60577
rtibia 19.6264
rfoot -14.9096 -15.974
rtoes -15.8404
lfemur -6.1897 9.88787 -25.9017
ltibia 16.3271
lfoot -13.6084 -0.242305
ltoes -9.73969
893
root 10.7017 17.8123 -12.013 1.0306 -49.4989 4.858
lowerback -2.67107 2.5019 -3.52207
upperback -0.660312 3.42531 0.285529
thorax 0.593635 1.70971 2.36411
lowerneck -20.8313 5.49124 -3.85402
upperneck 26.6774 9.18696 -0.239221
head 12.0802 3.61213 2.02515
rclavicle 1.61761e-014 -1.59028e-015
rhumerus -27.6256 -12.6184 -81.5101
rradius 27.5675
rwrist -0.408578
rhand -15.2429 12.2071
rfingers 7.12502
rthumb 10.9305 -17.4884
lclavicle 1.61761e-014 -1.59028e-015
lhumerus -29.4535 9.74033 83.4832
lradius 27.1015
lwrist -15.245
lhand -0.688267 41.1522
lfingers 7.12502
lthumb 24.931 69.546
rfemur -4.46394 -4.0311 6.52219
rtibia 19.6775
rfoot -14.8744 -15.8293
rtoes -15.8606
lfemur -6.2309 9.7089 -25.9507
ltibia 16.3531
lfoot -13.4541 -0.199089
ltoes -9.99376
894
root 10.7015 17.8115 -12.0134 0.973642 -49.4969 4.94682
lowerback -2.70058 2.45631 -3.59239
upperback -0.658218 3.36769 0.271988
thorax 0.612853 1.68042 2.38964
lowerneck -21.0453 5.53217 -4.07886
upperneck 26.9466 9.22115 0.183915
head 12.1878 3.64873 2.23885
rclavicle 5.45291e-014 -1.19271e-015
rhumerus -27.6026 -12.5169 -81.5909
rradius 27.6272
rwrist -0.444918
rhand -15.2103 12.1488
rfingers 7.12502
rthumb 10.9619 -17.5451
lclavicle 5.45291e-014 -1.19271e-015
lhumerus -29.4984 10.5226 83.2359
lradius 27.1574
lwrist -15.9542
lhand -0.479293 41.2197
lfingers 7.12502
lthumb 25.1312 69.5856
rfemur -4.54439 -4.30004 6.46516
rtibia 19.7516
rfoot -14.7409 -15.7401
rtoes -16.4846
lfemur -6.22536 9.83789 -26.0185
ltibia 16.3206
lfoot -13.5048 -0.332315
ltoes -9.33981
895
root 10.7008 17.8098 -12.0099 0.94901 -49.5162 4.99477
lowerback -2.75734 2.41369 -3.63272
upperback -0.663455 3.31396 0.286913
thorax 0.639654 1.65306 2.4288
lowerneck -20.9943 5.54726 -4.10374
upperneck 26.9352 9.24047 0.205343
head 12.1698 3.65898 2.25121
rclavicle -5.17337e-014 -1.03368e-014
rhumerus -27.5652 -12.4928 -81.5835
rradius 27.5443
rwrist -0.290192
rhand -15.3245 12.3116
rfingers 7.12502
rthumb 10.8518 -17.388
lclavicle -5.17337e-014 -1.03368e-014
lhumerus -29.3181 9.64354 83.5127
lradius 26.8904
lwrist -14.9857
lhand -0.862531 41.0374
lfingers 7.12502
lthumb 24.764 69.4543
rfemur -4.6144 -4.3373 6.43471
rtibia 19.8298
rfoot -14.7405 -15.7558
rtoes -17.2153
lfemur -6.19549 10.1602 -26.0897
ltibia 16.2483
lfoot -13.7739 -0.485164
ltoes -10.4125
896
root 10.6988 17.8095 -12.0045 0.961241 -49.573 4.98131
lowerback -2.79081 2.47195 -3.61818
upperback -0.706584 3.39128 0.31863
thorax 0.607688 1.69294 2.45541
lowerneck -20.7263 5.47532 -4.14095
upperneck 26.7955 9.14825 0.132272
head 12.0673 3.61416 2.20062
rclavicle -1.10574e-015 1.11319e-014
rhumerus -27.6382 -12.6054 -81.4198
rradius 27.4655
rwrist -0.186428
rhand -15.5256 12.4756
rfingers 7.12502
rthumb 10.6578 -17.2341
lclavicle -1.10574e-015 1.11319e-014
lhumerus -29.2929 9.16072 83.7648
lradius 26.7557
lwrist -14.5116
lhand -1.46939 40.3634
lfingers 7.12502
lthumb 24.1822 68.8589
rfemur -4.64279 -4.16798 6.42133
rtibia 19.9267
rfoot -14.9601 -15.7285
rtoes -16.9514
lfemur -6.17406 10.1113 -26.093
ltibia 16.2113
lfoot -13.6224 -0.294752
ltoes -11.5993
897
root 10.6974 17.8104 -12.0019 0.89607 -49.5799 5.1052
lowerback -2.86816 2.53093 -3.67799
upperback -0.731712 3.4741 0.306854
thorax 0.616573 1.73439 2.48182
lowerneck -20.4999 5.34429 -4.27578
upperneck 26.6447 8.98592 0.127925
head 11.9617 3.53766 2.18182
rclavicle -1.57723e-013 4.77083e-015
rhumerus -27.714 -12.6174 -81.3001
rradius 27.5489
rwrist -0.302334
rhand -15.4278 12.4482
rfingers 7.12502
rthumb 10.7521 -17.2566
lclavicle -1.57723e-013 4.77083e-015
lhumerus -29.27 9.03658 83.8965
lradius 26.6986
lwrist -14.4736
lhand -1.62123 40.0493
lfingers 7.12502
lthumb 24.0366 68.5641
rfemur -4.70756 -4.09347 6.3178
rtibia 20.0353
rfoot -15.0533 -15.7256
rtoes -16.3826
lfemur -6.19063 9.8695 -26.1762
ltibia 16.1839
lfoot -13.4604 -0.14867
ltoes -11.4599
898
root 10.6974 17.8095 -12.0026 0.804275 -49.5878 5.32097
lowerback -2.92821 2.45263 -3.88142
upperback -0.784791 3.37684 0.290303
thorax 0.591489 1.68682 2.5772
lowerneck -20.4209 5.36688 -4.28531
upperneck 26.6091 9.00669 0.151138
head 11.9294 3.55181 2.19067
rclavicle 5.89769e-014 2.38542e-015
rhumerus -27.7401 -12.3805 -81.3725
rradius 27.5952
rwrist -0.348911
rhand -15.2009 12.5986
rfingers 7.12502
rthumb 10.971 -17.0948
lclavicle 5.89769e-014 2.38542e-015
lhumerus -29.346 9.24333 83.7791
lradius 26.716
lwrist -14.5967
lhand -1.58502 40.1785
lfingers 7.12502
lthumb 24.0714 68.6887
rfemur -4.85627 -4.16391 6.17285
rtibia 20.1442
rfoot -14.9815 -15.7417
rtoes -16.6606
lfemur -6.22255 9.95057 -26.3492
ltibia 16.104
lfoot -13.5105 -0.293628
ltoes -9.67384
899
root 10.6975 17.8081 -12.0019 0.747131 -49.6129 5.40149
lowerback -2.90094 2.3879 -3.9781
upperback -0.862436 3.29026 0.276418
thorax 0.498018 1.64653 2.61103
lowerneck -20.359 5.44379 -4.19437
upperneck 26.7165 9.06529 0.219891
head 11.9569 3.59249 2.21113
rclavicle -3.49116e-015 1.59028e-015
rhumerus -27.9086 -12.1035 -81.5006
rradius 27.6964
rwrist -0.474954
rhand -15.4129 12.6713
rfingers 7.12502
rthumb 10.7665 -17.0327
lclavicle -3.49116e-015 1.59028e-015
lhumerus -29.4904 9.37117 83.6368
lradius 26.747
lwrist -14.684
lhand -1.63076 40.39
lfingers 7.12502
lthumb 24.0275 68.906
rfemur -4.90272 -4.17253 6.11763
rtibia 20.226
rfoot -14.9881 -15.7343
rtoes -16.6787
lfemur -6.18086 10.0456 -26.4162
ltibia 16.0519
lfoot -13.5205 -0.357136
ltoes -8.03022
900
root 10.6954 17.8081 -12.0002 0.553412 -49.6411 5.59131
lowerback -2.88734 2.41161 -4.09999
upperback -0.902647 3.32382 0.235902
thorax 0.441954 1.66501 2.63628
lowerneck -20.0691 5.36628 -4.18961
upperneck 26.5719 8.9361 0.187864
head 11.849 3.54126 2.16299
rclavicle -2.8948e-014 -8.34896e-015
rhumerus -28.1034 -11.9631 -81.5158
rradius 27.8093
rwrist -0.634119
rhand -15.7259 12.4328
rfingers 7.12502
rthumb 10.4646 -17.2867
lclavicle -2.8948e-014 -8.34896e-015
lhumerus -29.5769 9.29105 83.6425
lradius 26.7478
lwrist -14.7302
lhand -1.37257 40.6781
lfingers 7.12502
lthumb 24.2751 69.1612
rfemur -4.83594 -4.05722 5.95442
rtibia 20.2681
rfoot -15.21 -15.6216
rtoes -15.577
lfemur -6.11464 10.0169 -26.5371
ltibia 16.0574
lfoot -13.6415 -0.355441
ltoes -8.5076
901
root 10.6931 17.808 -11.9982 0.508037 -49.6644 5.62622
lowerback -2.90687 2.39754 -4.14195
upperback -0.892709 3.30724 0.258975
thorax 0.460556 1.65628 2.68423
lowerneck -19.8029 5.25263 -4.20343
upperneck 26.2181 8.81978 -0.0677447
head 11.6787 3.47188 2.0336
rclavicle -1.23122e-014 -2.78299e-015
rhumerus -28.0531 -11.8155 -81.5254
rradius 27.8019
rwrist -0.726638
rhand -15.682 12.4456
rfingers 7.12502
rthumb 10.5069 -17.2718
lclavicle -1.23122e-014 -2.78299e-015
lhumerus -29.6081 9.43132 83.6484
lradius 26.8099
lwrist -14.8796
lhand -0.855972 40.8203
lfingers 7.12502
lthumb 24.7703 69.2363
rfemur -4.81943 -4.0214 5.90677
rtibia 20.3067
rfoot -15.3267 -15.531
rtoes -15.0872
lfemur -6.06378 10.0366 -26.5721
ltibia 16.0191
lfoot -13.7353 -0.29282
ltoes -9.71897
